<svg width="1838" height="352" viewBox="0 0 1838 352" fill="none" xmlns="http://www.w3.org/2000/svg">
<path d="M1578.75 260.375C1577.33 264.208 1575.04 267.083 1571.88 269C1568.79 270.917 1565.63 271.875 1562.38 271.875H1549.25L1622.25 85.125C1623.58 81.625 1625.63 78.9583 1628.38 77.125C1631.13 75.2083 1634.33 74.25 1638 74.25H1651.25L1578.75 260.375ZM1759.58 169.5V182L1660.46 233.75V211.75C1660.46 210.083 1660.87 208.542 1661.71 207.125C1662.54 205.708 1663.91 204.542 1665.83 203.625L1711.21 180.25C1715.12 178.333 1719.41 176.833 1724.08 175.75C1719.41 174.667 1715.12 173.167 1711.21 171.25L1665.83 148C1663.91 147 1662.54 145.833 1661.71 144.5C1660.87 143.083 1660.46 141.542 1660.46 139.875V117.875L1759.58 169.5Z" fill="#F1C013"/>
<path d="M67.25 171.25C63.3333 173.167 59.0417 174.667 54.375 175.75C59.0417 176.833 63.3333 178.333 67.25 180.25L112.625 203.625C114.542 204.542 115.917 205.708 116.75 207.125C117.583 208.542 118 210.083 118 211.75V233.75L18.875 182V169.5L118 117.875V139.875C118 141.542 117.583 143.083 116.75 144.5C115.917 145.833 114.542 147 112.625 148L67.25 171.25Z" fill="#F1C013"/>
<path d="M271.825 192.25C262.909 192.667 255.409 193.458 249.325 194.625C243.242 195.708 238.367 197.125 234.7 198.875C231.034 200.625 228.409 202.667 226.825 205C225.242 207.333 224.45 209.875 224.45 212.625C224.45 218.042 226.034 221.917 229.2 224.25C232.45 226.583 236.659 227.75 241.825 227.75C248.159 227.75 253.617 226.625 258.2 224.375C262.867 222.042 267.409 218.542 271.825 213.875V192.25ZM201.075 136.625C215.825 123.125 233.575 116.375 254.325 116.375C261.825 116.375 268.534 117.625 274.45 120.125C280.367 122.542 285.367 125.958 289.45 130.375C293.534 134.708 296.617 139.917 298.7 146C300.867 152.083 301.95 158.75 301.95 166V247H287.95C285.034 247 282.784 246.583 281.2 245.75C279.617 244.833 278.367 243.042 277.45 240.375L274.7 231.125C271.45 234.042 268.284 236.625 265.2 238.875C262.117 241.042 258.909 242.875 255.575 244.375C252.242 245.875 248.659 247 244.825 247.75C241.075 248.583 236.909 249 232.325 249C226.909 249 221.909 248.292 217.325 246.875C212.742 245.375 208.784 243.167 205.45 240.25C202.117 237.333 199.534 233.708 197.7 229.375C195.867 225.042 194.95 220 194.95 214.25C194.95 211 195.492 207.792 196.575 204.625C197.659 201.375 199.409 198.292 201.825 195.375C204.325 192.458 207.534 189.708 211.45 187.125C215.367 184.542 220.159 182.292 225.825 180.375C231.575 178.458 238.242 176.917 245.825 175.75C253.409 174.5 262.075 173.75 271.825 173.5V166C271.825 157.417 269.992 151.083 266.325 147C262.659 142.833 257.367 140.75 250.45 140.75C245.45 140.75 241.284 141.333 237.95 142.5C234.7 143.667 231.825 145 229.325 146.5C226.825 147.917 224.534 149.208 222.45 150.375C220.45 151.542 218.2 152.125 215.7 152.125C213.534 152.125 211.7 151.583 210.2 150.5C208.7 149.333 207.492 148 206.575 146.5L201.075 136.625ZM359.903 134.5C362.487 131.917 365.195 129.542 368.028 127.375C370.945 125.125 373.987 123.25 377.153 121.75C380.403 120.167 383.862 118.958 387.528 118.125C391.195 117.208 395.195 116.75 399.528 116.75C406.528 116.75 412.737 117.958 418.153 120.375C423.57 122.708 428.07 126.042 431.653 130.375C435.32 134.625 438.07 139.75 439.903 145.75C441.82 151.667 442.778 158.208 442.778 165.375V247H411.903V165.375C411.903 157.542 410.112 151.5 406.528 147.25C402.945 142.917 397.487 140.75 390.153 140.75C384.82 140.75 379.82 141.958 375.153 144.375C370.487 146.792 366.07 150.083 361.903 154.25V247H331.028V118.75H349.903C353.903 118.75 356.528 120.625 357.778 124.375L359.903 134.5ZM519.017 179.75C522.85 179.75 526.183 179.25 529.017 178.25C531.85 177.167 534.183 175.708 536.017 173.875C537.933 172.042 539.35 169.833 540.267 167.25C541.267 164.667 541.767 161.833 541.767 158.75C541.767 152.417 539.85 147.417 536.017 143.75C532.267 140 526.6 138.125 519.017 138.125C511.433 138.125 505.725 140 501.892 143.75C498.142 147.417 496.267 152.417 496.267 158.75C496.267 161.75 496.725 164.542 497.642 167.125C498.642 169.708 500.058 171.958 501.892 173.875C503.808 175.708 506.183 177.167 509.017 178.25C511.933 179.25 515.267 179.75 519.017 179.75ZM553.892 252.75C553.892 250.25 553.142 248.208 551.642 246.625C550.142 245.042 548.1 243.833 545.517 243C542.933 242.083 539.892 241.417 536.392 241C532.975 240.583 529.308 240.292 525.392 240.125C521.558 239.875 517.558 239.667 513.392 239.5C509.308 239.333 505.308 239 501.392 238.5C497.975 240.417 495.183 242.667 493.017 245.25C490.933 247.833 489.892 250.833 489.892 254.25C489.892 256.5 490.433 258.583 491.517 260.5C492.683 262.5 494.475 264.208 496.892 265.625C499.392 267.042 502.6 268.125 506.517 268.875C510.433 269.708 515.225 270.125 520.892 270.125C526.642 270.125 531.6 269.667 535.767 268.75C539.933 267.917 543.35 266.708 546.017 265.125C548.767 263.625 550.767 261.792 552.017 259.625C553.267 257.542 553.892 255.25 553.892 252.75ZM584.642 123.125V134.625C584.642 138.292 582.433 140.542 578.017 141.375L566.517 143.5C568.267 147.917 569.142 152.75 569.142 158C569.142 164.333 567.85 170.083 565.267 175.25C562.767 180.333 559.267 184.667 554.767 188.25C550.267 191.833 544.933 194.625 538.767 196.625C532.683 198.542 526.1 199.5 519.017 199.5C516.517 199.5 514.1 199.375 511.767 199.125C509.433 198.875 507.142 198.542 504.892 198.125C500.892 200.542 498.892 203.25 498.892 206.25C498.892 208.833 500.058 210.75 502.392 212C504.808 213.167 507.975 214 511.892 214.5C515.808 215 520.267 215.333 525.267 215.5C530.267 215.583 535.392 215.833 540.642 216.25C545.892 216.667 551.017 217.417 556.017 218.5C561.017 219.5 565.475 221.125 569.392 223.375C573.308 225.625 576.433 228.708 578.767 232.625C581.183 236.458 582.392 241.417 582.392 247.5C582.392 253.167 580.975 258.667 578.142 264C575.392 269.333 571.35 274.083 566.017 278.25C560.767 282.417 554.267 285.75 546.517 288.25C538.85 290.833 530.1 292.125 520.267 292.125C510.6 292.125 502.183 291.167 495.017 289.25C487.85 287.417 481.892 284.917 477.142 281.75C472.392 278.667 468.85 275.083 466.517 271C464.183 266.917 463.017 262.667 463.017 258.25C463.017 252.25 464.808 247.25 468.392 243.25C472.058 239.167 477.058 235.917 483.392 233.5C479.975 231.75 477.267 229.417 475.267 226.5C473.267 223.583 472.267 219.75 472.267 215C472.267 213.083 472.6 211.125 473.267 209.125C474.017 207.042 475.058 205 476.392 203C477.808 201 479.558 199.125 481.642 197.375C483.725 195.542 486.183 193.917 489.017 192.5C482.517 189 477.392 184.333 473.642 178.5C469.975 172.667 468.142 165.833 468.142 158C468.142 151.667 469.392 145.958 471.892 140.875C474.475 135.708 478.017 131.333 482.517 127.75C487.1 124.083 492.475 121.292 498.642 119.375C504.892 117.458 511.683 116.5 519.017 116.5C524.517 116.5 529.683 117.083 534.517 118.25C539.35 119.333 543.767 120.958 547.767 123.125H584.642ZM635.472 61.25V247H604.597V61.25H635.472ZM748.858 168.125C748.858 164.125 748.275 160.375 747.108 156.875C746.025 153.292 744.358 150.167 742.108 147.5C739.858 144.833 736.983 142.75 733.483 141.25C730.067 139.667 726.067 138.875 721.483 138.875C712.567 138.875 705.525 141.417 700.358 146.5C695.275 151.583 692.025 158.792 690.608 168.125H748.858ZM689.983 186.75C690.483 193.333 691.65 199.042 693.483 203.875C695.317 208.625 697.733 212.583 700.733 215.75C703.733 218.833 707.275 221.167 711.358 222.75C715.525 224.25 720.108 225 725.108 225C730.108 225 734.4 224.417 737.983 223.25C741.65 222.083 744.817 220.792 747.483 219.375C750.233 217.958 752.608 216.667 754.608 215.5C756.692 214.333 758.692 213.75 760.608 213.75C763.192 213.75 765.108 214.708 766.358 216.625L775.233 227.875C771.817 231.875 767.983 235.25 763.733 238C759.483 240.667 755.025 242.833 750.358 244.5C745.775 246.083 741.067 247.208 736.233 247.875C731.483 248.542 726.858 248.875 722.358 248.875C713.442 248.875 705.15 247.417 697.483 244.5C689.817 241.5 683.15 237.125 677.483 231.375C671.817 225.542 667.358 218.375 664.108 209.875C660.858 201.292 659.233 191.375 659.233 180.125C659.233 171.375 660.65 163.167 663.483 155.5C666.317 147.75 670.358 141.042 675.608 135.375C680.942 129.625 687.4 125.083 694.983 121.75C702.65 118.417 711.275 116.75 720.858 116.75C728.942 116.75 736.4 118.042 743.233 120.625C750.067 123.208 755.942 127 760.858 132C765.775 136.917 769.608 143 772.358 150.25C775.192 157.417 776.608 165.625 776.608 174.875C776.608 179.542 776.108 182.708 775.108 184.375C774.108 185.958 772.192 186.75 769.358 186.75H689.983ZM830.653 213.75C834.153 218 837.945 221 842.028 222.75C846.195 224.5 850.57 225.375 855.153 225.375C859.903 225.375 864.153 224.542 867.903 222.875C871.737 221.125 874.987 218.458 877.653 214.875C880.32 211.208 882.362 206.583 883.778 201C885.195 195.333 885.903 188.583 885.903 180.75C885.903 166.667 883.57 156.5 878.903 150.25C874.237 143.917 867.528 140.75 858.778 140.75C852.862 140.75 847.695 142.125 843.278 144.875C838.862 147.542 834.653 151.333 830.653 156.25V213.75ZM830.653 134.5C835.82 129.083 841.528 124.792 847.778 121.625C854.112 118.375 861.32 116.75 869.403 116.75C876.82 116.75 883.487 118.208 889.403 121.125C895.403 124.042 900.487 128.25 904.653 133.75C908.903 139.167 912.153 145.75 914.403 153.5C916.653 161.25 917.778 169.958 917.778 179.625C917.778 190.042 916.487 199.5 913.903 208C911.32 216.5 907.612 223.792 902.778 229.875C898.028 235.875 892.278 240.542 885.528 243.875C878.778 247.208 871.278 248.875 863.028 248.875C859.028 248.875 855.403 248.458 852.153 247.625C848.903 246.875 845.903 245.792 843.153 244.375C840.403 242.958 837.862 241.25 835.528 239.25C833.278 237.167 831.112 234.875 829.028 232.375L827.653 241C827.153 243.167 826.278 244.708 825.028 245.625C823.862 246.542 822.237 247 820.153 247H799.778V61.25H830.653V134.5ZM970.749 141C974.749 133.333 979.499 127.333 984.999 123C990.499 118.583 996.999 116.375 1004.5 116.375C1010.42 116.375 1015.17 117.667 1018.75 120.25L1016.75 143.375C1016.33 144.875 1015.71 145.958 1014.87 146.625C1014.12 147.208 1013.08 147.5 1011.75 147.5C1010.5 147.5 1008.62 147.292 1006.12 146.875C1003.71 146.458 1001.33 146.25 998.999 146.25C995.582 146.25 992.541 146.75 989.874 147.75C987.207 148.75 984.791 150.208 982.624 152.125C980.541 153.958 978.666 156.208 976.999 158.875C975.416 161.542 973.916 164.583 972.499 168V247H941.624V118.75H959.749C962.916 118.75 965.124 119.333 966.374 120.5C967.624 121.583 968.457 123.583 968.874 126.5L970.749 141ZM1100.93 192.25C1092.01 192.667 1084.51 193.458 1078.43 194.625C1072.34 195.708 1067.47 197.125 1063.8 198.875C1060.14 200.625 1057.51 202.667 1055.93 205C1054.34 207.333 1053.55 209.875 1053.55 212.625C1053.55 218.042 1055.14 221.917 1058.3 224.25C1061.55 226.583 1065.76 227.75 1070.93 227.75C1077.26 227.75 1082.72 226.625 1087.3 224.375C1091.97 222.042 1096.51 218.542 1100.93 213.875V192.25ZM1030.18 136.625C1044.93 123.125 1062.68 116.375 1083.43 116.375C1090.93 116.375 1097.64 117.625 1103.55 120.125C1109.47 122.542 1114.47 125.958 1118.55 130.375C1122.64 134.708 1125.72 139.917 1127.8 146C1129.97 152.083 1131.05 158.75 1131.05 166V247H1117.05C1114.14 247 1111.89 246.583 1110.3 245.75C1108.72 244.833 1107.47 243.042 1106.55 240.375L1103.8 231.125C1100.55 234.042 1097.39 236.625 1094.3 238.875C1091.22 241.042 1088.01 242.875 1084.68 244.375C1081.34 245.875 1077.76 247 1073.93 247.75C1070.18 248.583 1066.01 249 1061.43 249C1056.01 249 1051.01 248.292 1046.43 246.875C1041.84 245.375 1037.89 243.167 1034.55 240.25C1031.22 237.333 1028.64 233.708 1026.8 229.375C1024.97 225.042 1024.05 220 1024.05 214.25C1024.05 211 1024.59 207.792 1025.68 204.625C1026.76 201.375 1028.51 198.292 1030.93 195.375C1033.43 192.458 1036.64 189.708 1040.55 187.125C1044.47 184.542 1049.26 182.292 1054.93 180.375C1060.68 178.458 1067.34 176.917 1074.93 175.75C1082.51 174.5 1091.18 173.75 1100.93 173.5V166C1100.93 157.417 1099.09 151.083 1095.43 147C1091.76 142.833 1086.47 140.75 1079.55 140.75C1074.55 140.75 1070.39 141.333 1067.05 142.5C1063.8 143.667 1060.93 145 1058.43 146.5C1055.93 147.917 1053.64 149.208 1051.55 150.375C1049.55 151.542 1047.3 152.125 1044.8 152.125C1042.64 152.125 1040.8 151.583 1039.3 150.5C1037.8 149.333 1036.59 148 1035.68 146.5L1030.18 136.625ZM1191 61.25V167.625H1196.75C1198.84 167.625 1200.46 167.375 1201.63 166.875C1202.88 166.292 1204.13 165.167 1205.38 163.5L1237.25 124.125C1238.59 122.375 1240.05 121.042 1241.63 120.125C1243.3 119.208 1245.42 118.75 1248 118.75H1276.25L1236.38 166.375C1233.55 170.125 1230.46 173 1227.13 175C1228.88 176.25 1230.42 177.708 1231.75 179.375C1233.17 181.042 1234.5 182.833 1235.75 184.75L1278.5 247H1250.63C1248.21 247 1246.13 246.625 1244.38 245.875C1242.63 245.042 1241.17 243.583 1240 241.5L1207.25 192.875C1206.09 190.958 1204.88 189.708 1203.63 189.125C1202.38 188.542 1200.5 188.25 1198 188.25H1191V247H1160.13V61.25H1191ZM1369.71 168.125C1369.71 164.125 1369.12 160.375 1367.96 156.875C1366.87 153.292 1365.21 150.167 1362.96 147.5C1360.71 144.833 1357.83 142.75 1354.33 141.25C1350.92 139.667 1346.92 138.875 1342.33 138.875C1333.42 138.875 1326.37 141.417 1321.21 146.5C1316.12 151.583 1312.87 158.792 1311.46 168.125H1369.71ZM1310.83 186.75C1311.33 193.333 1312.5 199.042 1314.33 203.875C1316.17 208.625 1318.58 212.583 1321.58 215.75C1324.58 218.833 1328.12 221.167 1332.21 222.75C1336.37 224.25 1340.96 225 1345.96 225C1350.96 225 1355.25 224.417 1358.83 223.25C1362.5 222.083 1365.67 220.792 1368.33 219.375C1371.08 217.958 1373.46 216.667 1375.46 215.5C1377.54 214.333 1379.54 213.75 1381.46 213.75C1384.04 213.75 1385.96 214.708 1387.21 216.625L1396.08 227.875C1392.67 231.875 1388.83 235.25 1384.58 238C1380.33 240.667 1375.87 242.833 1371.21 244.5C1366.62 246.083 1361.92 247.208 1357.08 247.875C1352.33 248.542 1347.71 248.875 1343.21 248.875C1334.29 248.875 1326 247.417 1318.33 244.5C1310.67 241.5 1304 237.125 1298.33 231.375C1292.67 225.542 1288.21 218.375 1284.96 209.875C1281.71 201.292 1280.08 191.375 1280.08 180.125C1280.08 171.375 1281.5 163.167 1284.33 155.5C1287.17 147.75 1291.21 141.042 1296.46 135.375C1301.79 129.625 1308.25 125.083 1315.83 121.75C1323.5 118.417 1332.12 116.75 1341.71 116.75C1349.79 116.75 1357.25 118.042 1364.08 120.625C1370.92 123.208 1376.79 127 1381.71 132C1386.62 136.917 1390.46 143 1393.21 150.25C1396.04 157.417 1397.46 165.625 1397.46 174.875C1397.46 179.542 1396.96 182.708 1395.96 184.375C1394.96 185.958 1393.04 186.75 1390.21 186.75H1310.83ZM1462.16 249C1450.99 249 1442.41 245.875 1436.41 239.625C1430.49 233.292 1427.53 224.583 1427.53 213.5V141.875H1414.41C1412.74 141.875 1411.32 141.333 1410.16 140.25C1408.99 139.167 1408.41 137.542 1408.41 135.375V123.125L1429.03 119.75L1435.53 84.75C1435.95 83.0833 1436.74 81.7917 1437.91 80.875C1439.07 79.9583 1440.57 79.5 1442.41 79.5H1458.41V119.875H1492.66V141.875H1458.41V211.375C1458.41 215.375 1459.37 218.5 1461.28 220.75C1463.28 223 1465.99 224.125 1469.41 224.125C1471.32 224.125 1472.91 223.917 1474.16 223.5C1475.49 223 1476.62 222.5 1477.53 222C1478.53 221.5 1479.41 221.042 1480.16 220.625C1480.91 220.125 1481.66 219.875 1482.41 219.875C1483.32 219.875 1484.07 220.125 1484.66 220.625C1485.24 221.042 1485.87 221.708 1486.53 222.625L1495.78 237.625C1491.28 241.375 1486.12 244.208 1480.28 246.125C1474.45 248.042 1468.41 249 1462.16 249Z" fill="black"/>
</svg>
